<?xml version="1.0" encoding="UTF-8"?><svg id="Capa_1" xmlns="http://www.w3.org/2000/svg" viewBox="0 0 1500 500"><g><path d="M556.64,344.47h-15.91v-7.54h40.73v7.54h-15.91v40.46h-8.91v-40.46Z"/><path d="M626.17,373.82h-24l-4.73,11.11h-9.19l21.6-48h8.78l21.67,48h-9.33l-4.8-11.11Zm-2.95-7l-9.05-20.98-8.98,20.98h18.04Z"/><path d="M653.25,336.92h8.91v40.46h25.1v7.54h-34.01v-48Z"/><path d="M701.18,336.92h8.91v40.46h25.1v7.54h-34.01v-48Z"/><path d="M785.12,377.45v7.47h-36v-48h35.04v7.47h-26.13v12.48h23.18v7.34h-23.18v13.23h27.09Z"/><path d="M833.32,384.92l-9.81-14.06c-.62,.07-1.23,.07-1.85,.07h-10.84v13.99h-8.91v-48h19.75c12.62,0,20.44,6.45,20.44,17.07,0,7.27-3.7,12.62-10.22,15.16l11.04,15.77h-9.6Zm-12.07-40.46h-10.42v19.13h10.42c7.82,0,11.86-3.57,11.86-9.6s-4.05-9.53-11.86-9.53Z"/><path d="M915.33,370.52c0,8.09-6.1,15.09-18.99,15.09-6.79,0-13.58-2.06-18.04-5.55l3.84-6.93c3.43,2.88,8.64,4.73,14.06,4.73,6.38,0,10.15-2.81,10.15-7.27s-3.15-7.13-10.42-7.13h-4.39v-6.1l10.9-12.96h-21.81v-7.47h32.71v5.97l-11.66,13.85c9.05,1.17,13.65,6.58,13.65,13.78Z"/><path d="M931.44,336.92h20.98c15.57,0,26.2,9.6,26.2,24s-10.63,24-26.2,24h-20.98v-48Zm20.57,40.46c10.7,0,17.62-6.51,17.62-16.46s-6.93-16.46-17.62-16.46h-11.66v32.92h11.66Z"/></g><g><path d="M242.85,197.17c0-38.29,29.28-66.81,69.07-66.81s68.88,28.34,68.88,66.81-29.47,66.81-68.88,66.81-69.07-28.53-69.07-66.81Zm124.05,0c0-31.34-23.46-54.43-54.99-54.43s-55.37,23.08-55.37,54.43,23.65,54.43,55.37,54.43,54.99-23.08,54.99-54.43Z"/><path d="M421.34,131.48h13.89v119.36h61.56c6.63,0,12.01,5.38,12.01,12.01h0s-87.46,0-87.46,0V131.48Z"/><path d="M541.27,131.48h13.89v131.37h0c-7.67,0-13.89-6.22-13.89-13.89v-117.48Z"/><path d="M722.2,197.17c0-38.29,29.28-66.81,69.07-66.81s68.88,28.34,68.88,66.81-29.47,66.81-68.88,66.81-69.07-28.53-69.07-66.81Zm124.05,0c0-31.34-23.46-54.43-54.99-54.43s-55.37,23.08-55.37,54.43,23.65,54.43,55.37,54.43,54.99-23.08,54.99-54.43Z"/><path d="M1182.21,131.48v131.37h0c-7.36,0-13.32-5.97-13.32-13.32v-91.78l-51.61,88.4h-6.57l-51.61-87.83v104.54h0c-7.36,0-13.33-5.97-13.33-13.33v-118.05h11.45l57.05,97.4,56.49-97.4h11.45Z"/><path d="M162.71,131.48h-49.17v12.01h48.8c26.27,0,40.16,12.01,40.16,33.03s-13.89,32.66-40.16,32.66h-48.8v39.79c0,7.67,6.22,13.89,13.89,13.89h0v-41.48h35.28c33.41,0,53.68-16.89,53.68-44.86s-20.27-45.04-53.68-45.04Z"/><g><path d="M621.22,195.11h-13.89v53.86c0,7.67,6.22,13.89,13.89,13.89h0v-55.74h55.93c6.63,0,12.01-5.38,12.01-12.01h0s-65.47,0-65.47,0h-2.47Z"/><polygon points="607.33 131.48 607.33 143.5 621.22 143.5 623.69 143.5 697.42 143.5 697.42 131.48 607.33 131.48"/></g><path d="M973.51,217.82c19.14-6.19,30.03-20.64,30.03-41.29,0-28.15-20.27-45.04-53.68-45.04h-49.17v12.01h48.8c26.27,0,40.16,12.01,40.16,33.03s-13.89,32.84-40.16,32.84h-48.8v39.6c0,7.67,6.22,13.89,13.89,13.89h0v-41.67h35.28c3.75,0,7.13-.19,10.51-.56l30.03,42.23h15.2l-32.09-45.04Z"/></g><g><polygon points="1218.95 262.86 1218.92 262.86 1218.91 262.89 1218.95 262.86"/><polygon points="1218.91 262.86 1218.92 262.86 1218.93 262.85 1218.91 262.86"/><path d="M1389.55,264.52c.43-.82,.69-2.15-.04-3.41-21.1-36.19-63.02-108.74-83.79-145.12-.75-1.32-2.09-1.74-3.04-1.74-.81,0-2.24,.36-3.02,1.74-20.76,36.38-83.77,145.09-83.77,145.09-.91,1.55-.32,3.13,.26,3.89,.45,.59,1.48,1.37,2.79,1.37l167.53,.02h0c1.62,0,2.68-1.08,3.07-1.84Zm-83.18-51.72l-.17-.1v-81.89s70.74,122.54,70.74,122.54l-70.57-40.54Zm-7.18-82v81.89l-70.73,40.62,70.73-122.51Zm-67.14,128.54l70.64-40.58,70.67,40.6-141.31-.02Z"/></g></svg>