<?xml version="1.0" encoding="UTF-8"?><svg id="Capa_1" xmlns="http://www.w3.org/2000/svg" viewBox="0 0 1000 1000"><defs><style>.cls-1{fill:#fff;}</style></defs><g><polygon class="cls-1" points="328.38 481.71 328.32 481.71 328.29 481.76 328.38 481.71"/><polygon class="cls-1" points="328.29 481.71 328.32 481.71 328.34 481.69 328.29 481.71"/><path class="cls-1" d="M677.98,485.1c.87-1.69,1.41-4.42-.09-6.98-43.24-74.16-129.13-222.83-171.69-297.38-1.54-2.7-4.27-3.56-6.23-3.56-1.66,0-4.59,.75-6.19,3.56-42.54,74.54-171.65,297.31-171.65,297.31-1.86,3.19-.65,6.41,.54,7.97,.93,1.22,3.04,2.81,5.71,2.81l343.3,.05h0c3.32,0,5.49-2.21,6.3-3.77Zm-170.45-105.99l-.36-.21V211.08s144.96,251.1,144.96,251.1l-144.61-83.08Zm-14.71-168.02v167.81l-144.94,83.23,144.94-251.04Zm-137.58,263.4l144.75-83.16,144.82,83.2-289.58-.04Z"/></g><g><g><path class="cls-1" d="M321.22,740h-13.69v-6.49h35.04v6.49h-13.69v34.8h-7.67v-34.8Z"/><path class="cls-1" d="M381.03,765.25h-20.65l-4.07,9.56h-7.9l18.58-41.29h7.55l18.64,41.29h-8.02l-4.13-9.56Zm-2.54-6.02l-7.79-18.05-7.73,18.05h15.51Z"/><path class="cls-1" d="M404.33,733.51h7.67v34.8h21.59v6.49h-29.26v-41.29Z"/><path class="cls-1" d="M445.56,733.51h7.67v34.8h21.59v6.49h-29.26v-41.29Z"/><path class="cls-1" d="M517.76,768.37v6.43h-30.97v-41.29h30.14v6.43h-22.48v10.74h19.94v6.31h-19.94v11.39h23.3Z"/><path class="cls-1" d="M559.22,774.8l-8.44-12.09c-.53,.06-1.06,.06-1.59,.06h-9.32v12.03h-7.67v-41.29h16.99c10.85,0,17.58,5.54,17.58,14.69,0,6.25-3.19,10.85-8.79,13.04l9.5,13.57h-8.26Zm-10.38-34.8h-8.97v16.46h8.97c6.72,0,10.21-3.07,10.21-8.26s-3.48-8.2-10.21-8.2Z"/><path class="cls-1" d="M629.77,762.42c0,6.96-5.25,12.98-16.34,12.98-5.84,0-11.68-1.77-15.51-4.78l3.3-5.96c2.95,2.48,7.43,4.07,12.09,4.07,5.49,0,8.73-2.42,8.73-6.25s-2.71-6.13-8.97-6.13h-3.78v-5.25l9.38-11.15h-18.76v-6.43h28.14v5.13l-10.03,11.92c7.79,1,11.74,5.66,11.74,11.86Z"/><path class="cls-1" d="M643.63,733.51h18.05c13.39,0,22.53,8.26,22.53,20.65s-9.14,20.65-22.53,20.65h-18.05v-41.29Zm17.7,34.8c9.2,0,15.16-5.6,15.16-14.16s-5.96-14.16-15.16-14.16h-10.03v28.32h10.03Z"/></g><g><g><path class="cls-1" d="M138.75,635.26c0-28.27,21.62-49.33,50.99-49.33s50.86,20.92,50.86,49.33-21.76,49.33-50.86,49.33-50.99-21.06-50.99-49.33Zm91.59,0c0-23.14-17.32-40.19-40.6-40.19s-40.88,17.04-40.88,40.19,17.46,40.19,40.88,40.19,40.6-17.04,40.6-40.19Z"/><path class="cls-1" d="M270.54,586.76h10.26v88.13h45.45c4.9,0,8.87,3.97,8.87,8.87h0s-64.57,0-64.57,0v-97Z"/><path class="cls-1" d="M359.09,586.76h10.26v97h0c-5.66,0-10.26-4.59-10.26-10.26v-86.74Z"/><path class="cls-1" d="M492.68,635.26c0-28.27,21.62-49.33,50.99-49.33s50.86,20.92,50.86,49.33-21.76,49.33-50.86,49.33-50.99-21.06-50.99-49.33Zm91.59,0c0-23.14-17.32-40.19-40.6-40.19s-40.88,17.04-40.88,40.19,17.46,40.19,40.88,40.19,40.6-17.04,40.6-40.19Z"/><path class="cls-1" d="M832.32,586.76v97h0c-5.43,0-9.84-4.4-9.84-9.84v-67.76l-38.11,65.27h-4.85l-38.11-64.85v77.18h0c-5.43,0-9.84-4.41-9.84-9.84v-87.16h8.45l42.13,71.92,41.71-71.92h8.45Z"/><path class="cls-1" d="M79.58,586.76H43.27v8.87h36.03c19.4,0,29.65,8.87,29.65,24.39s-10.25,24.11-29.65,24.11H43.27v29.38c0,5.66,4.59,10.26,10.26,10.26h0v-30.62h26.05c24.67,0,39.63-12.47,39.63-33.12s-14.96-33.26-39.63-33.26Z"/><g><path class="cls-1" d="M418.12,633.74h-10.26v39.77c0,5.66,4.59,10.26,10.26,10.26h0v-41.16h41.29c4.9,0,8.87-3.97,8.87-8.87h0s-48.34,0-48.34,0h-1.82Z"/><polygon class="cls-1" points="407.86 586.76 407.86 595.63 418.12 595.63 419.94 595.63 474.38 595.63 474.38 586.76 407.86 586.76"/></g><path class="cls-1" d="M678.23,650.5c14.13-4.57,22.17-15.24,22.17-30.49,0-20.78-14.96-33.26-39.63-33.26h-36.31v8.87h36.03c19.4,0,29.65,8.87,29.65,24.39s-10.25,24.25-29.65,24.25h-36.03v29.24c0,5.66,4.59,10.26,10.26,10.26h0v-30.76h26.05c2.77,0,5.27-.14,7.76-.42l22.17,31.18h11.22l-23.7-33.26Z"/></g><path class="cls-1" d="M934.19,657.92h-54.27l-8.85,19.69c-1.73,3.85-5.56,6.33-9.78,6.33h-3.77l44.53-97.4h10.16l44.53,97.4h-3.91c-4.22,0-8.05-2.48-9.78-6.33l-8.85-19.69Zm-3.76-8.35l-23.38-52.32-23.38,52.32h46.75Z"/></g></g></svg>